# Blender v2.79 (sub 0) OBJ File: 'Potion.blend'
# www.blender.org
mtllib Cork.mtl
o Icosphere.001
v 0.049905 1.188238 -0.147976
v -0.138264 1.188238 -0.086835
v -0.138264 1.188238 0.111016
v 0.166202 1.188238 0.012091
v 0.049905 1.188238 0.172157
v 0.055547 1.360201 -0.165342
v -0.153037 1.360201 -0.097568
v 0.184462 1.360201 0.012091
v -0.153037 1.360201 0.121749
v 0.055547 1.360201 0.189523
v 0.089855 1.639511 -0.271386
v -0.242136 1.639511 -0.163513
v 0.295041 1.639511 0.011024
v -0.242136 1.639511 0.185561
v 0.089855 1.639511 0.293433
v -0.044180 1.188238 -0.117405
v 0.108053 1.188238 -0.067942
v -0.138264 1.188238 0.012091
v 0.108053 1.188238 0.092124
v -0.044180 1.188238 0.141587
v -0.048745 1.360201 -0.131455
v 0.120004 1.360201 -0.076625
v -0.153037 1.360201 0.012091
v 0.120004 1.360201 0.100807
v -0.048745 1.360201 0.155636
v 0.175332 1.274220 0.012091
v 0.052726 1.274220 0.180840
v 0.052726 1.274220 -0.156659
v -0.145650 1.274220 0.116383
v -0.145650 1.274220 -0.092201
v -0.090421 1.644844 -0.257643
v 0.224402 1.644844 -0.155352
v -0.284990 1.644844 0.010160
v 0.224402 1.644844 0.175671
v -0.090421 1.644844 0.277962
v -0.216880 1.372168 -0.145135
v 0.079941 1.372168 -0.241580
v 0.263391 1.372168 0.010912
v 0.079941 1.372168 0.263405
v -0.216880 1.372168 0.166960
v -0.254929 1.372165 0.010293
v -0.080971 1.372165 0.249726
v 0.200502 1.372165 -0.137685
v 0.200502 1.372165 0.158271
v -0.046462 1.274220 -0.124430
v -0.145650 1.274220 0.012091
v -0.046462 1.274220 0.148612
v 0.114029 1.274220 -0.072284
v 0.114029 1.274220 0.096465
v -0.080971 1.372165 -0.229140
v -0.090421 1.644844 -0.257643
v -0.242136 1.639511 -0.163513
v 0.224402 1.644844 -0.155352
v 0.089855 1.639511 -0.271386
v -0.284990 1.644844 0.010160
v -0.242136 1.639511 0.185561
v 0.224402 1.644844 0.175671
v 0.295041 1.639511 0.011024
v -0.090421 1.644844 0.277962
v 0.089855 1.639511 0.293433
v -0.001904 1.667845 0.011024
vt 0.479162 0.434656
vt 0.555279 0.539421
vt 0.555279 0.459388
vt 0.460767 0.186083
vt 0.392812 0.186084
vt 0.380184 0.319755
vt 0.456042 0.322422
vt 0.457217 0.137110
vt 0.499404 0.137110
vt 0.499404 0.180100
vt 0.455046 0.180100
vt 0.541592 0.137110
vt 0.583779 0.137110
vt 0.588121 0.180100
vt 0.543763 0.180100
vt 0.478021 0.137110
vt 0.527615 0.137110
vt 0.529026 0.180100
vt 0.476880 0.180100
vt 0.499404 0.137110
vt 0.447258 0.137110
vt 0.444575 0.180100
vt 0.499404 0.180100
vt 0.478021 0.137110
vt 0.428427 0.137110
vt 0.424734 0.180100
vt 0.476880 0.180100
vt 0.613453 0.417614
vt 0.648773 0.499938
vt 0.648773 0.499938
vt 0.613453 0.417614
vt 0.426314 0.186083
vt 0.499994 0.186084
vt 0.499938 0.319755
vt 0.417614 0.322422
vt 0.601503 0.186083
vt 0.541223 0.186084
vt 0.546180 0.319755
vt 0.613453 0.322422
vt 0.460767 0.186083
vt 0.541223 0.186084
vt 0.546180 0.319755
vt 0.456042 0.322422
vt 0.500303 0.186083
vt 0.421970 0.186084
vt 0.412670 0.319755
vt 0.500370 0.322422
vt 0.578017 0.186084
vt 0.587207 0.319755
vt 0.424734 0.554234
vt 0.424734 0.499404
vt 0.373788 0.500303
vt 0.392812 0.578017
vt 0.424734 0.444575
vt 0.392812 0.421970
vt 0.392812 0.186084
vt 0.380184 0.319755
vt 0.476880 0.427632
vt 0.460767 0.380587
vt 0.529026 0.410688
vt 0.541223 0.373748
vt 0.574292 0.186083
vt 0.583126 0.322422
vt 0.593483 0.499404
vt 0.561254 0.543763
vt 0.601503 0.574292
vt 0.632948 0.499994
vt 0.529026 0.588121
vt 0.541223 0.626240
vt 0.601503 0.186083
vt 0.613453 0.322422
vt 0.561254 0.455046
vt 0.601503 0.426314
vt 0.527615 0.137110
vt 0.529026 0.180100
vt 0.526204 0.094119
vt 0.479162 0.094119
vt 0.432120 0.094119
vt 0.551550 0.137110
vt 0.554234 0.180100
vt 0.548867 0.094119
vt 0.499404 0.094119
vt 0.449942 0.094119
vt 0.428427 0.137110
vt 0.424734 0.180100
vt 0.432120 0.094119
vt 0.479162 0.094119
vt 0.526204 0.094119
vt 0.499404 0.094119
vt 0.539421 0.094119
vt 0.579438 0.094119
vt 0.415030 0.137110
vt 0.410688 0.180100
vt 0.419371 0.094119
vt 0.459388 0.094119
vt 0.476880 0.571177
vt 0.460767 0.620020
vt 0.613453 0.583126
vt 0.613453 0.583126
vt 0.358757 0.500370
vt 0.380184 0.412670
vt 0.380184 0.412670
vt 0.358757 0.500370
vt 0.456042 0.366469
vt 0.456042 0.366469
vt 0.546180 0.641143
vt 0.456042 0.634271
vt 0.456042 0.634271
vt 0.546180 0.641143
vt 0.546180 0.358733
vt 0.546180 0.358733
vt 0.380184 0.587207
vt 0.380184 0.587207
vt 0.500300 0.499938
vt 0.479162 0.564152
vt 0.526204 0.579438
vt 0.432120 0.499404
vt 0.432120 0.548867
vt 0.432120 0.449942
vt 0.526204 0.419371
vt 0.584353 0.499404
vn 0.0000 -1.0000 0.0000
vn -0.5221 -0.1070 -0.8462
vn 0.8060 -0.0856 0.5856
vn 0.8060 -0.0856 -0.5856
vn -0.3079 -0.0856 0.9476
vn -0.9963 -0.0856 0.0000
vn -0.3079 -0.0856 -0.9476
vn 0.0000 0.0000 1.0000
vn 0.9134 -0.1067 0.3927
vn 0.6505 -0.1068 -0.7520
vn -0.0863 -0.1068 0.9905
vn -0.9664 -0.1070 0.2337
vn -0.9659 -0.1070 -0.2357
vn -0.1371 -0.9904 -0.0197
vn -0.1378 -0.9903 0.0197
vn -0.5157 -0.1069 0.8501
vn -0.0619 -0.9899 0.1274
vn -0.0251 -0.9899 0.1399
vn 0.9148 -0.1068 -0.3896
vn 0.1229 -0.9902 -0.0659
vn 0.1001 -0.9903 -0.0962
vn 0.6555 -0.1067 0.7476
vn 0.1029 -0.9898 0.0982
vn 0.1248 -0.9899 0.0673
vn -0.0777 -0.1070 -0.9912
vn -0.0236 -0.9905 -0.1352
vn -0.0605 -0.9905 -0.1232
vn 0.1011 0.9949 0.0000
vn 0.0239 0.9970 -0.0735
vn -0.0638 0.9969 -0.0464
vn -0.0629 0.9970 0.0457
vn 0.0233 0.9971 0.0718
vn 0.0753 0.9972 0.0000
vn -0.0807 0.9950 -0.0586
vn 0.0312 0.9949 0.0961
vn -0.0810 0.9950 0.0589
vn 0.0310 0.9950 -0.0954
usemtl None
s off
f 20/1/1 17/2/1 19/3/1
f 50/4/2 36/5/2 12/6/2 31/7/2
f 49/8/3 26/9/3 8/10/3 24/11/3
f 48/12/4 28/13/4 6/14/4 22/15/4
f 47/16/5 27/17/5 10/18/5 25/19/5
f 46/20/6 29/21/6 9/22/6 23/23/6
f 45/24/7 30/25/7 7/26/7 21/27/7
f 34/28/8 13/29/8 58/30/8 57/31/8
f 44/32/9 38/33/9 13/34/9 34/35/9
f 43/36/10 37/37/10 11/38/10 32/39/10
f 42/40/11 39/41/11 15/42/11 35/43/11
f 41/44/12 40/45/12 14/46/12 33/47/12
f 36/48/13 41/44/13 33/47/13 12/49/13
f 7/50/14 23/51/14 41/52/14 36/53/14
f 23/51/15 9/54/15 40/55/15 41/52/15
f 40/56/16 42/40/16 35/43/16 14/57/16
f 9/54/17 25/58/17 42/59/17 40/55/17
f 25/58/18 10/60/18 39/61/18 42/59/18
f 38/33/19 43/62/19 32/63/19 13/34/19
f 8/64/20 22/65/20 43/66/20 38/67/20
f 22/65/21 6/68/21 37/69/21 43/66/21
f 39/41/22 44/70/22 34/71/22 15/42/22
f 10/60/23 24/72/23 44/73/23 39/61/23
f 24/72/24 8/64/24 38/67/24 44/73/24
f 28/74/7 45/24/7 21/27/7 6/75/7
f 1/76/7 16/77/7 45/24/7 28/74/7
f 16/77/7 2/78/7 30/25/7 45/24/7
f 30/79/6 46/20/6 23/23/6 7/80/6
f 2/81/6 18/82/6 46/20/6 30/79/6
f 18/82/6 3/83/6 29/21/6 46/20/6
f 29/84/5 47/16/5 25/19/5 9/85/5
f 3/86/5 20/87/5 47/16/5 29/84/5
f 20/87/5 5/88/5 27/17/5 47/16/5
f 26/9/4 48/12/4 22/15/4 8/10/4
f 4/89/4 17/90/4 48/12/4 26/9/4
f 17/90/4 1/91/4 28/13/4 48/12/4
f 27/92/3 49/8/3 24/11/3 10/93/3
f 5/94/3 19/95/3 49/8/3 27/92/3
f 19/95/3 4/89/3 26/9/3 49/8/3
f 37/37/25 50/4/25 31/7/25 11/38/25
f 6/68/26 21/96/26 50/97/26 37/69/26
f 21/96/27 7/50/27 36/53/27 50/97/27
f 13/29/8 32/98/8 53/99/8 58/30/8
f 33/100/8 14/101/8 56/102/8 55/103/8
f 14/101/8 35/104/8 59/105/8 56/102/8
f 11/106/8 31/107/8 51/108/8 54/109/8
f 32/98/8 11/106/8 54/109/8 53/99/8
f 15/110/8 34/28/8 57/31/8 60/111/8
f 35/104/8 15/110/8 60/111/8 59/105/8
f 31/107/8 12/112/8 52/113/8 51/108/8
f 12/112/8 33/100/8 55/103/8 52/113/8
f 57/31/28 53/99/28 61/114/28
f 53/99/29 54/109/29 51/108/29
f 51/108/30 52/113/30 55/103/30
f 55/103/31 56/102/31 59/105/31
f 59/105/32 60/111/32 57/31/32
f 57/31/33 58/30/33 53/99/33
f 51/108/34 55/103/34 61/114/34
f 59/105/35 57/31/35 61/114/35
f 55/103/36 59/105/36 61/114/36
f 53/99/37 51/108/37 61/114/37
f 17/2/1 16/115/1 1/116/1
f 16/115/1 18/117/1 2/118/1
f 18/117/1 20/1/1 3/119/1
f 20/1/1 19/3/1 5/120/1
f 19/3/1 17/2/1 4/121/1
f 17/2/1 18/117/1 16/115/1
f 18/117/1 17/2/1 20/1/1
