# Blender v2.78 (sub 0) OBJ File: ''
# www.blender.org
mtllib Fluid.mtl
o Icosphere.002
v 0.003344 -0.938750 -0.005756
v 0.682980 -0.419551 0.488022
v -0.256248 -0.419551 0.793200
v -0.836737 -0.419551 -0.005756
v -0.256248 -0.419551 -0.804713
v 0.682980 -0.419551 -0.499535
v 0.262937 0.420535 0.793200
v -0.676291 0.420535 0.488022
v -0.676291 0.420535 -0.499535
v 0.262937 0.420535 -0.804713
v 0.843426 0.420535 -0.005756
v 0.048866 1.280509 -0.148837
v -0.126452 -0.679151 0.393722
v 0.343162 -0.679151 0.241133
v 0.213366 -0.419551 0.640611
v 0.682980 -0.419551 -0.005756
v 0.343162 -0.679151 -0.252646
v -0.416696 -0.679151 -0.005756
v -0.546492 -0.419551 0.393722
v -0.126452 -0.679151 -0.405235
v -0.546492 -0.419551 -0.405235
v 0.213366 -0.419551 -0.652124
v 0.763203 0.000492 0.241133
v 0.763203 0.000492 -0.252646
v 0.003344 0.000492 0.793200
v 0.472958 0.000492 0.640611
v -0.756514 0.000492 0.241133
v -0.466269 0.000492 0.640611
v -0.466269 0.000492 -0.652124
v -0.756514 0.000492 -0.252646
v 0.472958 0.000492 -0.652124
v 0.003344 0.000492 -0.804713
v 0.553181 0.420535 0.393722
v -0.206677 0.420535 0.640611
v -0.676291 0.420535 -0.005756
v -0.206677 0.420535 -0.652124
v 0.553181 0.420535 -0.405235
v 0.083873 0.891199 0.277374
v 0.276403 0.891199 0.012386
v -0.227639 0.891199 0.176156
v -0.227639 0.891199 -0.151385
v 0.083873 0.891199 -0.252603
v -0.014794 0.135558 -0.357744
v 0.276403 1.115499 0.012386
v 0.083873 1.115499 0.277374
v -0.227639 1.115499 0.176156
v -0.227639 1.115499 -0.151385
v 0.083873 1.115499 -0.252603
v -0.241311 1.085506 0.186090
v 0.089096 1.085506 0.293447
v -0.241311 1.085506 0.186090
v 0.089096 1.085506 0.293447
v 0.349678 1.085506 0.012386
v 0.106516 1.085506 -0.322292
v 0.106516 1.224021 -0.322292
v 0.349678 1.224021 0.012386
v -0.286920 1.085506 -0.194455
v -0.286920 1.085506 0.219226
v -0.286920 1.224021 0.219226
v -0.286920 1.224021 -0.194455
v 0.106516 1.085506 0.347063
v 0.106516 1.224021 0.347063
v 0.126168 1.374543 -0.299572
v 0.176016 0.634067 -0.536695
v 0.079370 1.284815 -0.240617
v -0.217943 1.284815 -0.144013
v 0.048866 1.043962 -0.148837
v -0.217943 1.284815 0.168599
v 0.263124 1.284815 0.012293
v 0.079370 1.284815 0.265204
v -0.140431 1.280509 -0.087329
v -0.140431 1.280509 0.111708
v 0.165860 1.280509 0.012189
v 0.048866 1.280509 0.173216
v -0.140431 1.043962 -0.087329
v -0.010288 1.043962 0.011098
v -0.140431 1.043962 0.111708
v 0.165860 1.043962 0.012189
v 0.048866 1.043962 0.173216
vn 0.1876 -0.7947 0.5774
vn 0.6071 -0.7947 0.0000
vn -0.4911 -0.7947 0.3568
vn -0.4911 -0.7947 -0.3568
vn 0.1876 -0.7947 -0.5774
vn 0.9822 -0.1876 0.0000
vn 0.3035 -0.1876 0.9342
vn -0.7946 -0.1876 0.5774
vn -0.7946 -0.1876 -0.5774
vn 0.3035 -0.1876 -0.9342
vn 0.7946 0.1876 0.5774
vn -0.3035 0.1876 0.9342
vn -0.9822 0.1876 0.0000
vn -0.3035 0.1876 -0.9342
vn 0.7946 0.1876 -0.5774
vn 0.5860 0.6895 0.4257
vn -0.2269 0.6789 0.6983
vn -0.7238 0.6900 0.0000
vn -0.1957 0.7141 -0.6722
vn 0.5728 0.7061 -0.4162
vn 0.5536 0.7138 -0.4289
vn -0.2187 0.7064 -0.6731
vn 0.0000 1.0000 0.0000
vn 0.8090 0.0000 -0.5878
vn 0.8090 0.0000 0.5878
vn -0.3090 -0.0000 -0.9511
vn -1.0000 0.0000 0.0000
vn -0.3090 -0.0000 0.9511
usemtl None
s off
f 1//1 14//1 13//1
f 2//2 14//2 16//2
f 1//3 13//3 18//3
f 1//4 18//4 20//4
f 1//5 20//5 17//5
f 2//6 16//6 23//6
f 3//7 15//7 25//7
f 4//8 19//8 27//8
f 5//9 21//9 29//9
f 6//10 22//10 31//10
f 2//11 23//11 26//11
f 3//12 25//12 28//12
f 4//13 27//13 30//13
f 5//14 29//14 32//14
f 6//15 31//15 24//15
f 7//16 33//16 38//16
f 8//17 34//17 40//17
f 9//18 35//18 41//18
f 10//19 36//19 42//19 64//19
f 11//20 37//20 39//20
f 39//20 37//20 42//20
f 37//21 10//21 64//21 42//21
f 42//22 36//22 41//22
f 36//22 9//22 41//22
f 41//18 35//18 40//18
f 35//18 8//18 40//18
f 40//17 34//17 38//17
f 34//17 7//17 38//17
f 38//16 33//16 39//16
f 33//16 11//16 39//16
f 24//15 37//15 11//15
f 24//15 31//15 37//15
f 31//15 10//15 37//15
f 32//14 36//14 10//14
f 32//14 29//14 36//14
f 29//14 9//14 36//14
f 30//13 35//13 9//13
f 30//13 27//13 35//13
f 27//13 8//13 35//13
f 28//12 34//12 8//12
f 28//12 25//12 34//12
f 25//12 7//12 34//12
f 26//11 33//11 7//11
f 26//11 23//11 33//11
f 23//11 11//11 33//11
f 31//10 32//10 10//10
f 31//10 22//10 32//10
f 22//10 5//10 32//10
f 29//9 30//9 9//9
f 29//9 21//9 30//9
f 21//9 4//9 30//9
f 27//8 28//8 8//8
f 27//8 19//8 28//8
f 19//8 3//8 28//8
f 25//7 26//7 7//7
f 25//7 15//7 26//7
f 15//7 2//7 26//7
f 23//6 24//6 11//6
f 23//6 16//6 24//6
f 16//6 6//6 24//6
f 17//5 22//5 6//5
f 17//5 20//5 22//5
f 20//5 5//5 22//5
f 20//4 21//4 5//4
f 20//4 18//4 21//4
f 18//4 4//4 21//4
f 18//3 19//3 4//3
f 18//3 13//3 19//3
f 13//3 3//3 19//3
f 16//2 17//2 6//2
f 16//2 14//2 17//2
f 14//2 1//2 17//2
f 13//1 15//1 3//1
f 13//1 14//1 15//1
f 14//1 2//1 15//1
f 46//23 45//23 48//23
f 45//23 44//23 48//23
f 48//23 47//23 46//23
f 44//24 39//24 42//24 48//24
f 45//25 38//25 39//25 44//25
f 41//26 47//26 48//26 42//26
f 41//27 40//27 46//27 47//27
f 46//28 40//28 38//28 45//28
